<?xml version="1.0" encoding="utf-8"?>
<!-- Generator: Adobe Illustrator 22.1.0, SVG Export Plug-In . SVG Version: 6.00 Build 0)  -->
<svg version="1.1" id="openai-horizontal" xmlns="http://www.w3.org/2000/svg" xmlns:xlink="http://www.w3.org/1999/xlink" x="0px"
	 y="0px" viewBox="0 0 183.6 47.6" style="enable-background:new 0 0 183.6 47.6;" xml:space="preserve">
<style type="text/css">
	.st0{fill:url(#SVGID_1_);}
	.st1{fill:url(#SVGID_2_);}
	.st2{fill:url(#SVGID_3_);stroke:#FFFFFF;stroke-width:0.5;stroke-miterlimit:10;}
</style>
<linearGradient id="SVGID_1_" gradientUnits="userSpaceOnUse" x1="10.8476" y1="63.4926" x2="32.9551" y2="33.4689" gradientTransform="matrix(1 0 0 -1 0 67.0709)">
	<stop  offset="0" style="stop-color:#41D1FF"/>
	<stop  offset="1" style="stop-color:#BD34FE"/>
</linearGradient>
<path class="st0" d="M39.1,13.3L21.3,45.1c-0.4,0.7-1.3,0.7-1.7,0L1.5,13.3c-0.4-0.7,0.2-1.6,1-1.4l17.8,3.2c0.1,0,0.2,0,0.3,0
	l17.4-3.2C38.9,11.8,39.5,12.6,39.1,13.3z"/>
<g>
	<path d="M173.9,38.2c0.6-0.3,1.2-0.7,1.6-1.2c0.4-0.5,0.8-1.2,1-1.9l5.2-14.7h-3.9l-2.8,9.8h-0.1l-2.7-9.8h-3.9l4.8,13.7l-0.2,0.6
		c-0.2,0.4-0.4,0.7-0.6,0.9c-0.3,0.2-0.6,0.3-0.9,0.2c-0.3,0-0.7-0.1-1.2-0.2l-0.8,2.7c0.3,0.1,0.6,0.2,1,0.3
		c0.4,0.1,0.8,0.1,1.3,0.1C172.5,38.7,173.2,38.5,173.9,38.2z M164.1,33.5c0.8-0.3,1.5-0.8,2.1-1.4c0.5-0.6,0.9-1.3,1.1-2.1
		l-3.4-0.2c-0.1,0.3-0.3,0.6-0.6,0.8c-0.2,0.2-0.5,0.4-0.9,0.5c-0.3,0.1-0.7,0.2-1.1,0.2c-0.6,0-1.2-0.1-1.6-0.4
		c-0.4-0.3-0.8-0.6-1-1.1c-0.2-0.5-0.4-1-0.4-1.7v-2.2c0-0.5,0.1-1,0.4-1.4c0.2-0.4,0.6-0.8,1-1s0.9-0.4,1.5-0.4
		c0.5,0,1,0.1,1.4,0.4c0.4,0.2,0.7,0.6,1,1c0.2,0.4,0.3,0.9,0.3,1.4H156V28h11.2v-1c0-1.1-0.2-2.1-0.5-3c-0.3-0.8-0.8-1.5-1.3-2.1
		c-0.6-0.6-1.2-1-2-1.3c-0.8-0.3-1.6-0.4-2.5-0.4c-1.3,0-2.4,0.3-3.4,0.9c-1,0.6-1.7,1.4-2.2,2.4c-0.5,1-0.8,2.2-0.8,3.6
		c0,1.4,0.3,2.6,0.8,3.6c0.5,1,1.3,1.8,2.3,2.4c1,0.6,2.2,0.8,3.5,0.8C162.3,34,163.2,33.8,164.1,33.5z M144,24.6
		c0.2-0.4,0.5-0.7,0.9-0.9c0.4-0.2,0.8-0.3,1.3-0.3c0.7,0,1.3,0.2,1.7,0.7c0.4,0.5,0.6,1.1,0.6,1.9v7.8h3.7v-8.5
		c0-1-0.2-1.9-0.6-2.7c-0.4-0.7-0.9-1.3-1.6-1.7c-0.7-0.4-1.5-0.6-2.4-0.6c-1,0-1.8,0.2-2.5,0.7c-0.7,0.5-1.2,1.1-1.5,1.8h-0.2v-2.3
		H140v13.3h3.7V26C143.7,25.4,143.8,25,144,24.6z M133.7,33.7v-7.5c0-0.5,0.1-1,0.4-1.4c0.2-0.4,0.6-0.7,1-1
		c0.4-0.2,0.9-0.4,1.4-0.4c0.3,0,0.5,0,0.8,0.1c0.3,0,0.5,0.1,0.7,0.1v-3.3c-0.2,0-0.3-0.1-0.6-0.1s-0.4,0-0.6,0
		c-0.7,0-1.4,0.2-2,0.6c-0.6,0.4-1,1-1.2,1.9h-0.1v-2.3H130v13.3H133.7z M123,29.5c-0.2,0.4-0.6,0.7-0.9,0.9
		c-0.4,0.2-0.8,0.3-1.2,0.3c-0.7,0-1.3-0.2-1.7-0.7c-0.4-0.5-0.6-1.1-0.6-1.9v-7.8h-3.7v8.5c0,1,0.2,1.9,0.6,2.7
		c0.4,0.7,0.9,1.3,1.6,1.7c0.7,0.4,1.5,0.6,2.3,0.6c1,0,1.8-0.2,2.5-0.7c0.7-0.5,1.2-1.1,1.5-1.9h0.1v2.4h3.5V20.4h-3.7V28
		C123.4,28.6,123.3,29.1,123,29.5z M104.4,30.6c-0.4-0.3-0.7-0.8-0.9-1.4c-0.2-0.6-0.3-1.3-0.3-2.1s0.1-1.5,0.3-2.1
		c0.2-0.6,0.5-1.1,0.9-1.4c0.4-0.4,0.9-0.5,1.6-0.5c0.6,0,1.1,0.2,1.5,0.5c0.4,0.4,0.7,0.8,0.9,1.4c0.2,0.6,0.3,1.3,0.3,2.1
		s-0.1,1.5-0.3,2.1c-0.2,0.6-0.5,1.1-0.9,1.4c-0.4,0.4-0.9,0.5-1.5,0.5C105.3,31.1,104.8,30.9,104.4,30.6z M109.4,33.1
		c1-0.6,1.7-1.4,2.3-2.4c0.5-1,0.8-2.2,0.8-3.6c0-1.4-0.3-2.6-0.8-3.6c-0.5-1-1.3-1.8-2.3-2.4c-1-0.6-2.1-0.9-3.5-0.9
		c-1.3,0-2.5,0.3-3.5,0.9c-1,0.6-1.7,1.4-2.3,2.4c-0.5,1-0.8,2.2-0.8,3.6c0,1.4,0.3,2.6,0.8,3.6c0.5,1,1.3,1.8,2.3,2.4
		c1,0.6,2.1,0.9,3.5,0.9C107.3,34,108.4,33.7,109.4,33.1z M93.2,28.3c0,0.6-0.1,1-0.3,1.4c-0.2,0.4-0.4,0.7-0.7,0.9
		c-0.3,0.2-0.7,0.3-1.2,0.3c-0.4,0-0.8-0.1-1.1-0.3c-0.3-0.2-0.6-0.4-0.8-0.8c-0.2-0.3-0.3-0.7-0.3-1.2h-3.7c0,1.2,0.2,2.2,0.8,2.9
		c0.5,0.8,1.2,1.4,2.1,1.7c0.9,0.4,1.8,0.6,2.9,0.6c1.2,0,2.3-0.2,3.2-0.7c0.9-0.5,1.6-1.1,2.1-1.9c0.5-0.8,0.8-1.8,0.8-3V16h-3.7
		V28.3z M84.5,33.7l-5.8-8.4l-2.5,2.6l3.9,5.8H84.5z M75.6,33.7V16h-3.7v17.7H75.6z M77.7,27.1h0.9l5.7-6.7H80l-4.3,5h-0.5l0,4.4
		L77.7,27.1z M68.5,18.2c0.4-0.4,0.6-0.8,0.6-1.3c0-0.5-0.2-0.9-0.6-1.3c-0.4-0.4-0.9-0.5-1.4-0.5s-1,0.2-1.4,0.5
		c-0.4,0.4-0.6,0.8-0.6,1.3c0,0.5,0.2,1,0.6,1.3c0.4,0.4,0.9,0.5,1.4,0.5S68.1,18.5,68.5,18.2z M69,33.7V20.4h-3.7v13.3H69z
		 M53.3,33.7V19h2.5c0.7,0,1.3,0.1,1.8,0.4c0.5,0.2,0.8,0.6,1.1,1c0.2,0.4,0.4,1,0.4,1.5c0,0.6-0.1,1.1-0.4,1.5
		c-0.2,0.4-0.6,0.8-1.1,1c-0.5,0.3-1.1,0.4-1.8,0.4H52v3h4.5c1.4,0,2.5-0.3,3.5-0.8c1-0.5,1.7-1.2,2.2-2.1c0.5-0.9,0.8-1.9,0.8-3.1
		c0-1.2-0.2-2.2-0.7-3.1c-0.5-0.9-1.2-1.6-2.2-2.1S57.9,16,56.6,16h-7v17.7H53.3z"/>
</g>
<linearGradient id="SVGID_2_" gradientUnits="userSpaceOnUse" x1="16.8327" y1="12.1508" x2="23.1305" y2="3.598">
	<stop  offset="0" style="stop-color:#FFEA83"/>
	<stop  offset="8.333330e-02" style="stop-color:#FFDD35"/>
	<stop  offset="1" style="stop-color:#FFA800"/>
</linearGradient>
<circle class="st1" cx="20.3" cy="7.4" r="5.4"/>
<linearGradient id="SVGID_3_" gradientUnits="userSpaceOnUse" x1="19.0343" y1="53.9055" x2="21.7983" y2="34.9449" gradientTransform="matrix(1 0 0 -1 0 67.0709)">
	<stop  offset="0" style="stop-color:#FFEA83"/>
	<stop  offset="8.333330e-02" style="stop-color:#FFDD35"/>
	<stop  offset="1" style="stop-color:#FFA800"/>
</linearGradient>
<path class="st2" d="M24.2,12.9l-9.1,1.8c-0.1,0-0.3,0.2-0.3,0.3l-0.6,9.4c0,0.2,0.2,0.4,0.4,0.3l2.5-0.6c0.2-0.1,0.5,0.2,0.4,0.4
	l-0.8,3.7c-0.1,0.2,0.2,0.5,0.4,0.4l1.6-0.5c0.2-0.1,0.5,0.1,0.4,0.4l-1.2,5.8c-0.1,0.4,0.4,0.6,0.6,0.2l0.1-0.2l7.4-14.8
	c0.1-0.2-0.1-0.5-0.4-0.5l-2.6,0.5c-0.2,0-0.5-0.2-0.4-0.4l1.7-5.9C24.7,13.1,24.5,12.8,24.2,12.9z"/>
</svg>
